<svg width="565" height="138" viewBox="0 0 565 138" fill="none" xmlns="http://www.w3.org/2000/svg">
<path d="M58.112 2.688C75.0933 2.688 86.912 5.71734 93.568 11.776C100.224 17.7493 103.552 26.1973 103.552 37.12C103.552 44.6293 102.229 51.0293 99.584 56.32C96.9387 61.5253 92.288 65.6213 85.632 68.608C78.976 71.5093 69.8027 72.96 58.112 72.96H31.488V95.488H0C0.682666 78.9333 1.024 63.4453 1.024 49.024C1.024 34.6027 0.682666 19.1147 0 2.56001H31.488V2.688H58.112ZM49.152 48.256C56.2347 48.256 61.5253 48 65.024 47.488C68.608 46.8907 71.0827 45.8667 72.448 44.416C73.8987 42.9653 74.624 40.832 74.624 38.016C74.624 35.2 73.9413 33.1093 72.576 31.744C71.296 30.2933 68.864 29.312 65.28 28.8C61.7813 28.288 56.4053 28.032 49.152 28.032H31.488V48.256H49.152Z" fill="#0C0C0C"/>
<path d="M216.534 33.536C216.534 40.96 214.699 47.232 211.03 52.352C207.446 57.472 201.259 61.184 192.47 63.488C193.494 64.8533 194.219 65.92 194.646 66.688L215.382 95.488H180.566C176.811 88.4907 170.881 78.592 162.774 65.792H143.958V95.488H113.75C114.433 78.9333 114.774 63.4453 114.774 49.024C114.774 34.6027 114.433 19.1147 113.75 2.56001H143.958V2.688H170.198C187.435 2.688 199.467 5.46134 206.294 11.008C213.121 16.5547 216.534 24.064 216.534 33.536ZM143.958 27.264V41.856H161.238C168.491 41.856 173.953 41.6427 177.622 41.216C181.377 40.704 183.979 39.936 185.43 38.912C186.881 37.888 187.606 36.3947 187.606 34.432C187.606 32.5547 186.923 31.104 185.558 30.08C184.193 29.056 181.633 28.3307 177.878 27.904C174.123 27.4773 168.577 27.264 161.238 27.264H143.958Z" fill="#0C0C0C"/>
<path d="M256.958 72.064C289.385 71.8933 312.894 71.424 327.486 70.656C326.889 74.1547 326.505 77.7813 326.334 81.536C326.249 85.2053 326.206 89.856 326.206 95.488H226.75C227.433 78.9333 227.774 63.4453 227.774 49.024C227.774 34.6027 227.433 19.1147 226.75 2.56001H326.206V25.728H256.958V38.016C261.054 38.1013 267.113 38.144 275.134 38.144C288.702 38.144 302.739 37.888 317.246 37.376V59.392C302.739 58.88 288.702 58.624 275.134 58.624C267.113 58.624 261.054 58.6667 256.958 58.752V72.064Z" fill="#0C0C0C"/>
<path d="M337.75 84.48C340.651 80.128 343.041 76.0747 344.918 72.32C346.881 68.5653 348.758 64.2133 350.55 59.264C356.609 62.7627 363.649 65.4933 371.67 67.456C379.691 69.4187 387.158 70.4 394.07 70.4C401.153 70.4 406.145 69.8027 409.046 68.608C411.947 67.328 413.398 65.9627 413.398 64.512C413.398 59.3067 405.462 56.704 389.59 56.704C372.182 56.704 359.553 54.912 351.702 51.328C343.851 47.6587 339.926 41.7707 339.926 33.664C339.926 22.144 344.705 13.6533 354.262 8.192C363.819 2.73067 376.235 0 391.51 0C400.385 0 409.473 1.152 418.774 3.456C428.161 5.67467 436.609 8.74667 444.118 12.672C441.643 18.304 439.041 25.1733 436.31 33.28C435.798 34.9867 435.371 36.2667 435.03 37.12C430.678 33.6213 424.107 30.72 415.318 28.416C406.529 26.0267 398.763 24.832 392.022 24.832C383.915 24.832 378.454 25.3867 375.638 26.496C372.822 27.52 371.414 29.056 371.414 31.104C371.414 33.152 373.334 34.816 377.174 36.096C381.099 37.2907 386.731 37.888 394.07 37.888C412.161 37.888 425.302 39.9787 433.494 44.16C441.686 48.256 445.782 54.5707 445.782 63.104C445.782 75.0507 441.43 83.6693 432.726 88.96C424.022 94.1653 410.838 96.768 393.174 96.768C383.702 96.768 374.059 95.744 364.246 93.696C354.433 91.5627 345.601 88.4907 337.75 84.48Z" fill="#0C0C0C"/>
<path d="M456 84.48C458.901 80.128 461.291 76.0747 463.168 72.32C465.131 68.5653 467.008 64.2133 468.8 59.264C474.859 62.7627 481.899 65.4933 489.92 67.456C497.941 69.4187 505.408 70.4 512.32 70.4C519.403 70.4 524.395 69.8027 527.296 68.608C530.197 67.328 531.648 65.9627 531.648 64.512C531.648 59.3067 523.712 56.704 507.84 56.704C490.432 56.704 477.803 54.912 469.952 51.328C462.101 47.6587 458.176 41.7707 458.176 33.664C458.176 22.144 462.955 13.6533 472.512 8.192C482.069 2.73067 494.485 0 509.76 0C518.635 0 527.723 1.152 537.024 3.456C546.411 5.67467 554.859 8.74667 562.368 12.672C559.893 18.304 557.291 25.1733 554.56 33.28C554.048 34.9867 553.621 36.2667 553.28 37.12C548.928 33.6213 542.357 30.72 533.568 28.416C524.779 26.0267 517.013 24.832 510.272 24.832C502.165 24.832 496.704 25.3867 493.888 26.496C491.072 27.52 489.664 29.056 489.664 31.104C489.664 33.152 491.584 34.816 495.424 36.096C499.349 37.2907 504.981 37.888 512.32 37.888C530.411 37.888 543.552 39.9787 551.744 44.16C559.936 48.256 564.032 54.5707 564.032 63.104C564.032 75.0507 559.68 83.6693 550.976 88.96C542.272 94.1653 529.088 96.768 511.424 96.768C501.952 96.768 492.309 95.744 482.496 93.696C472.683 91.5627 463.851 88.4907 456 84.48Z" fill="#0C0C0C"/>
<path d="M260.525 119.422C256.909 119.308 253.397 119.239 249.988 119.216V137.145H241.352V119.216C237.92 119.239 3.94957 119.307 0.379883 119.422V112.209L260.525 112.209V119.422Z" fill="url(#paint0_linear_960_368)"/>
<path d="M276.619 137.488C271.345 137.488 267.464 136.355 264.977 134.088C262.49 131.798 261.246 128.592 261.246 124.471C261.246 120.395 262.478 117.212 264.942 114.923C267.43 112.633 271.322 111.488 276.619 111.488C281.939 111.488 389.881 112.633 392.345 114.923C394.833 117.212 396.076 120.395 396.076 124.471C396.076 128.615 394.844 131.821 392.38 134.088C389.916 136.355 281.962 137.488 276.619 137.488ZM276.619 130.481C279.175 130.481 385.068 130.001 386.196 129.039C387.325 128.054 387.889 126.532 387.889 124.471C387.889 122.456 387.325 120.956 386.196 119.972C385.068 118.987 279.175 118.495 276.619 118.495C274.085 118.495 272.254 118.987 271.126 119.972C269.997 120.956 269.433 122.456 269.433 124.471C269.433 126.509 269.997 128.02 271.126 129.005C272.254 129.989 274.085 130.481 276.619 130.481Z" fill="url(#paint1_linear_960_368)"/>
<path d="M452.309 130.207C458.988 130.161 528.978 130.046 533.353 129.863C533.054 131.031 532.87 132.153 532.801 133.229C532.731 134.305 532.697 135.61 532.697 137.145H443.88C444.064 132.702 444.156 128.547 444.156 124.677C444.156 120.807 444.064 116.651 443.88 112.209H452.309V130.207Z" fill="url(#paint2_linear_960_368)"/>
<path d="M534.724 134.191C535.507 133.023 536.152 131.935 536.658 130.928C537.188 129.92 537.695 128.753 538.178 127.425C539.813 128.363 541.713 129.096 543.878 129.623C546.043 130.149 548.058 130.413 549.924 130.413C551.835 130.413 553.182 130.252 553.965 129.932C554.748 129.588 555.14 129.222 555.14 128.833C555.14 127.436 552.998 126.738 548.715 126.738C544.016 126.738 540.608 126.257 538.489 125.295C536.37 124.311 535.311 122.731 535.311 120.555C535.311 117.464 536.601 115.186 539.18 113.721C541.759 112.255 545.11 111.522 549.233 111.522C551.628 111.522 554.081 111.831 556.591 112.45C559.124 113.045 561.404 113.869 563.431 114.923C562.763 116.434 562.061 118.277 561.324 120.452C561.185 120.91 561.07 121.254 560.978 121.483C559.804 120.544 558.03 119.765 555.658 119.147C553.286 118.506 551.19 118.186 549.371 118.186C547.183 118.186 545.709 118.334 544.949 118.632C544.189 118.907 543.809 119.319 543.809 119.868C543.809 120.418 544.327 120.865 545.364 121.208C546.423 121.529 547.943 121.689 549.924 121.689C554.806 121.689 558.353 122.25 560.564 123.372C562.775 124.471 563.88 126.165 563.88 128.455C563.88 131.661 562.705 133.973 560.356 135.393C558.007 136.79 554.449 137.488 549.682 137.488C547.126 137.488 544.523 137.213 541.875 136.664C539.226 136.091 536.843 135.267 534.724 134.191Z" fill="url(#paint3_linear_960_368)"/>
<path d="M409.06 112.931C408.791 112.649 408.467 112.429 408.116 112.274C407.76 112.123 407.385 112.045 407.002 112.045C406.619 112.045 406.24 112.123 405.889 112.274C405.533 112.425 405.214 112.649 404.945 112.931L403.287 114.653C403.022 114.919 402.88 115.278 402.88 115.653C402.88 116.029 403.022 116.388 403.279 116.654L409.964 123.593C410.078 123.711 410.173 123.854 410.232 124.013C410.295 124.168 410.327 124.34 410.327 124.507C410.327 124.679 410.295 124.846 410.232 125.001C410.169 125.156 410.078 125.299 409.964 125.422L404.396 131.206C403.851 131.773 403.543 132.541 403.543 133.345C403.543 134.145 403.851 134.916 404.396 135.484L404.949 136.059C405.494 136.627 406.236 136.945 407.01 136.945C407.784 136.945 408.523 136.627 409.071 136.059L414.639 130.275C414.753 130.157 414.892 130.059 415.042 129.993C415.192 129.928 415.354 129.895 415.52 129.895C415.681 129.895 415.843 129.928 415.997 129.993C416.147 130.059 416.286 130.153 416.4 130.275L422.872 136.998C423.251 137.317 423.725 137.492 424.21 137.488C424.7 137.484 425.17 137.308 425.545 136.986L433.936 128.275C433.979 128.238 434.023 128.201 434.062 128.157L436.388 125.74C436.601 125.52 436.751 125.246 436.826 124.944C436.901 124.642 436.897 124.328 436.815 124.03C436.736 123.748 436.593 123.495 436.392 123.291L434.066 120.878C434.043 120.854 434.015 120.834 433.991 120.809L425.533 112.029C425.237 111.718 424.838 111.539 424.42 111.527C424.147 111.465 423.867 111.478 423.602 111.559C423.338 111.641 423.097 111.788 422.9 111.992L418.619 116.433C418.003 117.07 418.007 118.103 418.623 118.739L421.083 121.283C421.699 121.919 422.702 121.919 423.318 121.278C423.433 121.16 423.571 121.062 423.721 120.997C423.871 120.931 424.033 120.899 424.199 120.899C424.361 120.899 424.522 120.931 424.676 120.997C424.826 121.062 424.965 121.156 425.079 121.278L427.318 123.605C427.551 123.846 427.681 124.177 427.681 124.52C427.681 124.862 427.551 125.189 427.318 125.434L425.091 127.748C424.977 127.867 424.838 127.965 424.688 128.03C424.538 128.095 424.376 128.128 424.21 128.128C424.045 128.128 423.887 128.095 423.733 128.03C423.583 127.965 423.444 127.871 423.33 127.748" fill="url(#paint4_linear_960_368)"/>
<defs>
<linearGradient id="paint0_linear_960_368" x1="0.379883" y1="124.488" x2="563.88" y2="124.488" gradientUnits="userSpaceOnUse">
<stop stop-color="#FF00E5"/>
<stop offset="1" stop-color="#0094FF"/>
</linearGradient>
<linearGradient id="paint1_linear_960_368" x1="0.379883" y1="124.488" x2="563.88" y2="124.488" gradientUnits="userSpaceOnUse">
<stop stop-color="#FF00E5"/>
<stop offset="1" stop-color="#0094FF"/>
</linearGradient>
<linearGradient id="paint2_linear_960_368" x1="0.379883" y1="124.488" x2="563.88" y2="124.488" gradientUnits="userSpaceOnUse">
<stop stop-color="#FF00E5"/>
<stop offset="1" stop-color="#0094FF"/>
</linearGradient>
<linearGradient id="paint3_linear_960_368" x1="0.379883" y1="124.488" x2="563.88" y2="124.488" gradientUnits="userSpaceOnUse">
<stop stop-color="#FF00E5"/>
<stop offset="1" stop-color="#0094FF"/>
</linearGradient>
<linearGradient id="paint4_linear_960_368" x1="0.379883" y1="124.488" x2="563.88" y2="124.488" gradientUnits="userSpaceOnUse">
<stop stop-color="#FF00E5"/>
<stop offset="1" stop-color="#0094FF"/>
</linearGradient>
</defs>
</svg>
