<svg width="184" height="137" viewBox="0 0 184 137" fill="none" xmlns="http://www.w3.org/2000/svg">
<path d="M33.4427 7.60228C31.9896 6.11817 30.2374 4.95669 28.3355 4.13935C26.4123 3.34352 24.3822 2.93486 22.3094 2.93486C20.2366 2.93486 18.1852 3.34352 16.2833 4.13935C14.3601 4.93518 12.6292 6.11817 11.1761 7.60228L2.20102 16.679C0.76929 18.0771 0 19.9699 0 21.9487C0 23.9275 0.76929 25.8203 2.15829 27.2184L38.3363 63.7834C38.956 64.4072 39.4688 65.16 39.7894 65.9989C40.1313 66.8162 40.3022 67.7196 40.3022 68.6014C40.3022 69.5048 40.1313 70.3867 39.7894 71.204C39.4475 72.0213 38.956 72.7741 38.3363 73.4194L8.20576 103.897C5.25682 106.887 3.59002 110.931 3.59002 115.168C3.59002 119.384 5.25682 123.449 8.20576 126.439L11.1974 129.472C14.1464 132.461 18.1638 134.139 22.3521 134.139C26.5405 134.139 30.5365 132.461 33.5069 129.472L63.6374 98.9935C64.2571 98.3697 65.005 97.8535 65.817 97.5093C66.6291 97.1652 67.5052 96.9931 68.4027 96.9931C69.2788 96.9931 70.155 97.1652 70.9884 97.5093C71.8004 97.8535 72.5483 98.3482 73.168 98.9935L108.192 134.419C110.244 136.096 112.808 137.021 115.436 137C118.086 136.978 120.629 136.053 122.659 134.354L168.068 88.4541C168.304 88.2605 168.539 88.067 168.752 87.8304L181.339 75.0971C182.493 73.9356 183.305 72.4945 183.711 70.9029C184.117 69.3112 184.095 67.655 183.647 66.0849C183.219 64.6008 182.45 63.2672 181.36 62.1918L168.774 49.48C168.645 49.351 168.496 49.2434 168.368 49.1144L122.595 2.84882C120.992 1.21415 118.834 0.267756 116.569 0.203229C115.094 -0.119404 113.577 -0.0548772 112.145 0.3753C110.714 0.805477 109.41 1.5798 108.342 2.65524L85.1775 26.0569C81.8439 29.4123 81.8653 34.854 85.1989 38.2094L98.5119 51.6094C101.845 54.9648 107.273 54.9648 110.607 51.5879C111.227 50.9642 111.974 50.4479 112.786 50.1038C113.598 49.7597 114.475 49.5876 115.372 49.5876C116.248 49.5876 117.124 49.7597 117.958 50.1038C118.77 50.4479 119.518 50.9426 120.137 51.5879L132.254 63.848C133.515 65.117 134.22 66.8592 134.22 68.6659C134.22 70.4727 133.515 72.1934 132.254 73.4839L120.202 85.6795C119.582 86.3032 118.834 86.8194 118.022 87.1636C117.21 87.5077 116.334 87.6798 115.436 87.6798C114.539 87.6798 113.684 87.5077 112.851 87.1636C112.039 86.8194 111.291 86.3247 110.671 85.6795" fill="url(#paint0_linear_960_374)"/>
<defs>
<linearGradient id="paint0_linear_960_374" x1="0" y1="68.5" x2="184" y2="68.5" gradientUnits="userSpaceOnUse">
<stop stop-color="#FF00E5"/>
<stop offset="1" stop-color="#0094FF"/>
</linearGradient>
</defs>
</svg>
