<svg width="224" height="50" viewBox="0 0 224 50" fill="none" xmlns="http://www.w3.org/2000/svg">
<rect width="223.201" height="50" rx="10" fill="#07090D"/>
<path fill-rule="evenodd" clip-rule="evenodd" d="M33.0976 14.9791C35.9981 13.1201 40.0095 13.9873 42.0406 16.9112C42.5226 17.5897 42.8648 18.3582 43.0475 19.1716C43.2302 19.985 43.2496 20.827 43.1044 21.648C42.9637 22.432 42.6665 23.1792 42.2307 23.8444C42.8666 25.0644 43.0801 26.4628 42.8372 27.8185C42.6936 28.6234 42.3846 29.3892 41.9299 30.0671C41.4753 30.745 40.885 31.32 40.1967 31.7554L35.1029 35.0207C32.2029 36.88 28.191 36.0131 26.1599 33.0889C25.678 32.4104 25.3357 31.6418 25.153 30.8284C24.9704 30.015 24.951 29.1731 25.0961 28.3521C25.2367 27.568 25.534 26.8207 25.9701 26.1554C25.3339 24.9356 25.1205 23.5372 25.3636 22.1816C25.5071 21.3767 25.8161 20.6109 26.2707 19.9329C26.7253 19.255 27.3156 18.6799 28.0038 18.2445L33.0976 14.9791ZM30.1754 33.2414C30.9521 33.5309 31.7984 33.5738 32.6001 33.3642V33.3639C32.9662 33.2655 33.3152 33.1112 33.6349 32.9064L38.7288 29.6418C39.1426 29.3798 39.4976 29.034 39.771 28.6262C40.0445 28.2185 40.2303 27.7579 40.3167 27.2738C40.4039 26.7801 40.3923 26.2739 40.2824 25.7848C40.1725 25.2957 39.9666 24.8336 39.6767 24.4256C39.2046 23.7414 38.5351 23.2194 37.7587 22.9301C36.9822 22.6407 36.1362 22.5979 35.3348 22.8074C34.9685 22.9057 34.6194 23.0599 34.2997 23.2647L32.3563 24.5106C32.2595 24.5721 32.1541 24.6184 32.0435 24.648C31.8019 24.711 31.5469 24.698 31.3129 24.6106C31.0789 24.5233 30.8772 24.3658 30.735 24.1595C30.6478 24.0364 30.5859 23.8971 30.5528 23.7497C30.5198 23.6023 30.5163 23.4498 30.5425 23.301C30.5685 23.1552 30.6245 23.0164 30.7069 22.8936C30.7892 22.7708 30.8961 22.6666 31.0208 22.5877L36.1149 19.3228C36.2116 19.2612 36.317 19.2149 36.4277 19.1854C36.6691 19.1224 36.9239 19.1355 37.1577 19.2227C37.3915 19.31 37.5931 19.4673 37.7352 19.6734C37.8908 19.8951 37.9635 20.1649 37.9406 20.4352L37.9229 20.6254L38.1125 20.683C38.8283 20.9005 39.502 21.2393 40.1044 21.685L40.3654 21.8771L40.4616 21.5819C40.5131 21.4253 40.554 21.2653 40.5839 21.1031C40.6711 20.6094 40.6594 20.1031 40.5495 19.614C40.4396 19.1249 40.2337 18.6628 39.9439 18.2548C39.4718 17.5703 38.8022 17.048 38.0256 16.7585C37.2489 16.4689 36.4027 16.4261 35.601 16.6357C35.2348 16.7342 34.8857 16.8885 34.5659 17.0932L29.4723 20.3586C29.0582 20.6202 28.703 20.9658 28.4293 21.3733C28.1557 21.7808 27.9696 22.2413 27.883 22.7253C27.7957 23.219 27.8074 23.7253 27.9173 24.2144C28.0272 24.7035 28.2331 25.1656 28.5229 25.5735C28.995 26.258 29.6646 26.7803 30.4413 27.0698C31.2179 27.3594 32.0642 27.4023 32.8658 27.1927C33.232 27.0943 33.581 26.9403 33.9009 26.7359L35.8446 25.4895C35.9413 25.4279 36.0467 25.3816 36.1574 25.3521C36.399 25.2891 36.654 25.3021 36.888 25.3895C37.122 25.4768 37.3237 25.6343 37.4659 25.8406C37.5531 25.9637 37.6151 26.1029 37.6482 26.2504C37.6813 26.3978 37.6849 26.5503 37.6588 26.6991C37.6327 26.8449 37.5766 26.9837 37.4942 27.1065C37.4119 27.2293 37.3049 27.3335 37.1803 27.4124L32.0862 30.6787C31.9895 30.7403 31.884 30.7866 31.7734 30.8161C31.5319 30.8793 31.2768 30.8664 31.0428 30.7791C30.8088 30.6919 30.6071 30.5344 30.4649 30.3281C30.3091 30.1066 30.2363 29.8367 30.2595 29.5664L30.277 29.3762L30.0879 29.3185C29.3719 29.101 28.6982 28.7622 28.0957 28.3166L27.8345 28.124L27.7388 28.4187C27.6872 28.575 27.6466 28.7349 27.617 28.8968C27.5298 29.3905 27.5415 29.8967 27.6513 30.3858C27.7612 30.8749 27.9671 31.337 28.2569 31.745C28.729 32.4296 29.3987 32.9519 30.1754 33.2414Z" fill="#D92626"/>
<path d="M54.4366 29C54.3566 29 54.2926 28.976 54.2446 28.928C54.1966 28.88 54.1726 28.816 54.1726 28.736V23.024C54.1726 22.944 54.1966 22.88 54.2446 22.832C54.2926 22.784 54.3566 22.76 54.4366 22.76H54.6406C54.7206 22.76 54.7846 22.784 54.8326 22.832C54.8806 22.88 54.9046 22.944 54.9046 23.024V23.444C55.1046 23.188 55.3406 22.992 55.6126 22.856C55.8926 22.712 56.2286 22.64 56.6206 22.64C57.5166 22.64 58.1566 23.016 58.5406 23.768C58.7246 23.424 58.9926 23.152 59.3446 22.952C59.7046 22.744 60.1166 22.64 60.5806 22.64C61.0046 22.64 61.3846 22.74 61.7206 22.94C62.0646 23.132 62.3326 23.42 62.5246 23.804C62.7246 24.188 62.8246 24.668 62.8246 25.244V28.736C62.8246 28.816 62.8006 28.88 62.7526 28.928C62.7046 28.976 62.6406 29 62.5606 29H62.3566C62.2766 29 62.2126 28.976 62.1646 28.928C62.1166 28.88 62.0926 28.816 62.0926 28.736V25.364C62.0926 24.836 62.0166 24.428 61.8646 24.14C61.7126 23.844 61.5126 23.636 61.2646 23.516C61.0166 23.396 60.7486 23.336 60.4606 23.336C60.2206 23.336 59.9766 23.396 59.7286 23.516C59.4806 23.636 59.2726 23.844 59.1046 24.14C58.9446 24.428 58.8646 24.836 58.8646 25.364V28.736C58.8646 28.816 58.8406 28.88 58.7926 28.928C58.7446 28.976 58.6806 29 58.6006 29H58.3966C58.3166 29 58.2526 28.976 58.2046 28.928C58.1566 28.88 58.1326 28.816 58.1326 28.736V25.364C58.1326 24.836 58.0526 24.428 57.8926 24.14C57.7326 23.844 57.5286 23.636 57.2806 23.516C57.0326 23.396 56.7726 23.336 56.5006 23.336C56.2606 23.336 56.0166 23.396 55.7686 23.516C55.5206 23.636 55.3126 23.844 55.1446 24.14C54.9846 24.428 54.9046 24.832 54.9046 25.352V28.736C54.9046 28.816 54.8806 28.88 54.8326 28.928C54.7846 28.976 54.7206 29 54.6406 29H54.4366ZM66.3877 29.12C66.0037 29.12 65.6477 29.04 65.3197 28.88C64.9997 28.72 64.7397 28.508 64.5397 28.244C64.3397 27.972 64.2397 27.668 64.2397 27.332C64.2397 26.788 64.4597 26.352 64.8997 26.024C65.3397 25.696 65.9117 25.484 66.6157 25.388L68.5117 25.124V24.704C68.5117 24.28 68.3797 23.948 68.1157 23.708C67.8597 23.46 67.4477 23.336 66.8797 23.336C66.4637 23.336 66.1277 23.42 65.8717 23.588C65.6157 23.748 65.4397 23.96 65.3437 24.224C65.3037 24.344 65.2277 24.404 65.1157 24.404H64.9237C64.8277 24.404 64.7597 24.38 64.7197 24.332C64.6797 24.276 64.6597 24.212 64.6597 24.14C64.6597 24.028 64.6997 23.888 64.7797 23.72C64.8677 23.552 64.9997 23.388 65.1757 23.228C65.3517 23.06 65.5797 22.92 65.8597 22.808C66.1397 22.696 66.4797 22.64 66.8797 22.64C67.3517 22.64 67.7397 22.704 68.0437 22.832C68.3557 22.96 68.5957 23.128 68.7637 23.336C68.9397 23.536 69.0637 23.76 69.1357 24.008C69.2077 24.256 69.2437 24.5 69.2437 24.74V28.736C69.2437 28.816 69.2197 28.88 69.1717 28.928C69.1237 28.976 69.0597 29 68.9797 29H68.7757C68.6957 29 68.6317 28.976 68.5837 28.928C68.5357 28.88 68.5117 28.816 68.5117 28.736V28.172C68.4157 28.316 68.2797 28.46 68.1037 28.604C67.9277 28.748 67.6997 28.872 67.4197 28.976C67.1477 29.072 66.8037 29.12 66.3877 29.12ZM66.5077 28.424C66.8757 28.424 67.2117 28.344 67.5157 28.184C67.8197 28.024 68.0597 27.78 68.2357 27.452C68.4197 27.116 68.5117 26.696 68.5117 26.192V25.784L66.9637 26C66.3077 26.088 65.8117 26.24 65.4757 26.456C65.1397 26.672 64.9717 26.944 64.9717 27.272C64.9717 27.536 65.0477 27.752 65.1997 27.92C65.3517 28.088 65.5437 28.216 65.7757 28.304C66.0157 28.384 66.2597 28.424 66.5077 28.424ZM73.3973 29.12C72.9333 29.12 72.5373 29.036 72.2093 28.868C71.8893 28.7 71.6293 28.476 71.4293 28.196C71.2293 27.916 71.0813 27.604 70.9853 27.26C70.8973 26.916 70.8453 26.568 70.8293 26.216C70.8213 26.096 70.8173 25.984 70.8173 25.88C70.8173 25.776 70.8213 25.664 70.8293 25.544C70.8453 25.192 70.8973 24.844 70.9853 24.5C71.0813 24.156 71.2293 23.844 71.4293 23.564C71.6293 23.284 71.8893 23.06 72.2093 22.892C72.5373 22.724 72.9333 22.64 73.3973 22.64C73.8933 22.64 74.3013 22.732 74.6213 22.916C74.9493 23.1 75.2133 23.324 75.4133 23.588V20.744C75.4133 20.664 75.4373 20.6 75.4853 20.552C75.5333 20.504 75.5973 20.48 75.6773 20.48H75.8813C75.9613 20.48 76.0253 20.504 76.0733 20.552C76.1213 20.6 76.1453 20.664 76.1453 20.744V28.736C76.1453 28.816 76.1213 28.88 76.0733 28.928C76.0253 28.976 75.9613 29 75.8813 29H75.6773C75.5973 29 75.5333 28.976 75.4853 28.928C75.4373 28.88 75.4133 28.816 75.4133 28.736V28.172C75.2133 28.444 74.9493 28.672 74.6213 28.856C74.3013 29.032 73.8933 29.12 73.3973 29.12ZM73.4693 28.424C73.9253 28.424 74.2933 28.316 74.5733 28.1C74.8533 27.884 75.0613 27.616 75.1973 27.296C75.3333 26.968 75.4053 26.64 75.4133 26.312C75.4213 26.192 75.4253 26.036 75.4253 25.844C75.4253 25.652 75.4213 25.496 75.4133 25.376C75.4053 25.056 75.3293 24.74 75.1853 24.428C75.0493 24.116 74.8413 23.856 74.5613 23.648C74.2813 23.44 73.9173 23.336 73.4693 23.336C73.0053 23.336 72.6333 23.44 72.3533 23.648C72.0813 23.856 71.8853 24.128 71.7653 24.464C71.6453 24.8 71.5773 25.16 71.5613 25.544C71.5533 25.768 71.5533 25.992 71.5613 26.216C71.5773 26.6 71.6453 26.96 71.7653 27.296C71.8853 27.632 72.0813 27.904 72.3533 28.112C72.6333 28.32 73.0053 28.424 73.4693 28.424ZM80.4182 29.12C79.6422 29.12 79.0262 28.868 78.5702 28.364C78.1142 27.852 77.8542 27.184 77.7902 26.36C77.7822 26.24 77.7782 26.08 77.7782 25.88C77.7782 25.68 77.7822 25.52 77.7902 25.4C77.8302 24.856 77.9582 24.376 78.1742 23.96C78.3902 23.544 78.6862 23.22 79.0622 22.988C79.4462 22.756 79.8982 22.64 80.4182 22.64C80.9782 22.64 81.4542 22.764 81.8462 23.012C82.2382 23.26 82.5382 23.616 82.7462 24.08C82.9622 24.544 83.0702 25.096 83.0702 25.736V25.916C83.0702 25.996 83.0422 26.06 82.9862 26.108C82.9382 26.156 82.8742 26.18 82.7942 26.18H78.5222C78.5222 26.18 78.5222 26.196 78.5222 26.228C78.5222 26.26 78.5222 26.284 78.5222 26.3C78.5382 26.66 78.6222 27.004 78.7742 27.332C78.9262 27.652 79.1422 27.916 79.4222 28.124C79.7022 28.324 80.0342 28.424 80.4182 28.424C80.7622 28.424 81.0462 28.372 81.2702 28.268C81.5022 28.164 81.6862 28.052 81.8222 27.932C81.9582 27.804 82.0462 27.708 82.0862 27.644C82.1582 27.54 82.2142 27.48 82.2542 27.464C82.2942 27.44 82.3582 27.428 82.4462 27.428H82.6382C82.7102 27.428 82.7702 27.452 82.8182 27.5C82.8742 27.54 82.8982 27.596 82.8902 27.668C82.8822 27.78 82.8182 27.92 82.6982 28.088C82.5862 28.248 82.4222 28.408 82.2062 28.568C81.9982 28.728 81.7422 28.86 81.4382 28.964C81.1342 29.068 80.7942 29.12 80.4182 29.12ZM78.5222 25.508H82.3382V25.46C82.3382 25.06 82.2622 24.7 82.1102 24.38C81.9582 24.06 81.7382 23.808 81.4502 23.624C81.1622 23.432 80.8182 23.336 80.4182 23.336C80.0182 23.336 79.6742 23.432 79.3862 23.624C79.1062 23.808 78.8902 24.06 78.7382 24.38C78.5942 24.7 78.5222 25.06 78.5222 25.46V25.508ZM89.0855 29C88.9815 29 88.9015 28.976 88.8455 28.928C88.7895 28.88 88.7415 28.804 88.7015 28.7L87.0095 23.132C86.9935 23.084 86.9855 23.04 86.9855 23C86.9855 22.936 87.0095 22.88 87.0575 22.832C87.1055 22.784 87.1615 22.76 87.2255 22.76H87.4535C87.5335 22.76 87.5935 22.784 87.6335 22.832C87.6815 22.872 87.7095 22.908 87.7175 22.94L89.1935 27.932L90.7655 23C90.7815 22.952 90.8135 22.9 90.8615 22.844C90.9095 22.788 90.9855 22.76 91.0895 22.76H91.3295C91.4335 22.76 91.5095 22.788 91.5575 22.844C91.6135 22.9 91.6455 22.952 91.6535 23L93.2255 27.932L94.7015 22.94C94.7095 22.908 94.7335 22.872 94.7735 22.832C94.8215 22.784 94.8855 22.76 94.9655 22.76H95.1935C95.2575 22.76 95.3135 22.784 95.3615 22.832C95.4095 22.88 95.4335 22.936 95.4335 23C95.4335 23.04 95.4255 23.084 95.4095 23.132L93.7175 28.7C93.6855 28.804 93.6415 28.88 93.5855 28.928C93.5295 28.976 93.4455 29 93.3335 29H93.1295C93.0255 29 92.9375 28.976 92.8655 28.928C92.8015 28.88 92.7535 28.804 92.7215 28.7L91.2095 23.972L89.6975 28.7C89.6655 28.804 89.6175 28.88 89.5535 28.928C89.4895 28.976 89.4015 29 89.2895 29H89.0855ZM97.1631 29C97.0831 29 97.0191 28.976 96.9711 28.928C96.9231 28.88 96.8991 28.816 96.8991 28.736V23.024C96.8991 22.944 96.9231 22.88 96.9711 22.832C97.0191 22.784 97.0831 22.76 97.1631 22.76H97.3671C97.4471 22.76 97.5111 22.784 97.5591 22.832C97.6071 22.88 97.6311 22.944 97.6311 23.024V28.736C97.6311 28.816 97.6071 28.88 97.5591 28.928C97.5111 28.976 97.4471 29 97.3671 29H97.1631ZM97.0311 21.476C96.9511 21.476 96.8871 21.452 96.8391 21.404C96.7911 21.356 96.7671 21.292 96.7671 21.212V20.756C96.7671 20.676 96.7911 20.612 96.8391 20.564C96.8871 20.508 96.9511 20.48 97.0311 20.48H97.4871C97.5671 20.48 97.6311 20.508 97.6791 20.564C97.7351 20.612 97.7631 20.676 97.7631 20.756V21.212C97.7631 21.292 97.7351 21.356 97.6791 21.404C97.6311 21.452 97.5671 21.476 97.4871 21.476H97.0311ZM101.671 29C101.255 29 100.927 28.912 100.687 28.736C100.447 28.56 100.279 28.32 100.183 28.016C100.087 27.712 100.039 27.372 100.039 26.996V23.456H99.103C99.023 23.456 98.959 23.432 98.911 23.384C98.863 23.336 98.839 23.272 98.839 23.192V23.024C98.839 22.944 98.863 22.88 98.911 22.832C98.959 22.784 99.023 22.76 99.103 22.76H100.039V20.744C100.039 20.664 100.063 20.6 100.111 20.552C100.159 20.504 100.223 20.48 100.303 20.48H100.507C100.587 20.48 100.651 20.504 100.699 20.552C100.747 20.6 100.771 20.664 100.771 20.744V22.76H102.259C102.339 22.76 102.403 22.784 102.451 22.832C102.499 22.88 102.523 22.944 102.523 23.024V23.192C102.523 23.272 102.499 23.336 102.451 23.384C102.403 23.432 102.339 23.456 102.259 23.456H100.771V26.948C100.771 27.372 100.839 27.704 100.975 27.944C101.119 28.184 101.371 28.304 101.731 28.304H102.379C102.459 28.304 102.523 28.328 102.571 28.376C102.619 28.424 102.643 28.488 102.643 28.568V28.736C102.643 28.816 102.619 28.88 102.571 28.928C102.523 28.976 102.459 29 102.379 29H101.671ZM104.159 29C104.079 29 104.015 28.976 103.967 28.928C103.919 28.88 103.895 28.816 103.895 28.736V20.744C103.895 20.664 103.919 20.6 103.967 20.552C104.015 20.504 104.079 20.48 104.159 20.48H104.363C104.443 20.48 104.507 20.504 104.555 20.552C104.603 20.6 104.627 20.664 104.627 20.744V23.588C104.843 23.308 105.103 23.08 105.407 22.904C105.719 22.728 106.131 22.64 106.643 22.64C107.187 22.64 107.639 22.76 107.999 23C108.367 23.232 108.639 23.552 108.815 23.96C108.999 24.36 109.091 24.816 109.091 25.328V28.736C109.091 28.816 109.067 28.88 109.019 28.928C108.971 28.976 108.907 29 108.827 29H108.623C108.543 29 108.479 28.976 108.431 28.928C108.383 28.88 108.359 28.816 108.359 28.736V25.388C108.359 24.748 108.203 24.248 107.891 23.888C107.579 23.52 107.123 23.336 106.523 23.336C105.955 23.336 105.495 23.52 105.143 23.888C104.799 24.248 104.627 24.748 104.627 25.388V28.736C104.627 28.816 104.603 28.88 104.555 28.928C104.507 28.976 104.443 29 104.363 29H104.159ZM131.532 29.12C131.148 29.12 130.792 29.04 130.464 28.88C130.144 28.72 129.884 28.508 129.684 28.244C129.484 27.972 129.384 27.668 129.384 27.332C129.384 26.788 129.604 26.352 130.044 26.024C130.484 25.696 131.056 25.484 131.76 25.388L133.656 25.124V24.704C133.656 24.28 133.524 23.948 133.26 23.708C133.004 23.46 132.592 23.336 132.024 23.336C131.608 23.336 131.272 23.42 131.016 23.588C130.76 23.748 130.584 23.96 130.488 24.224C130.448 24.344 130.372 24.404 130.26 24.404H130.068C129.972 24.404 129.904 24.38 129.864 24.332C129.824 24.276 129.804 24.212 129.804 24.14C129.804 24.028 129.844 23.888 129.924 23.72C130.012 23.552 130.144 23.388 130.32 23.228C130.496 23.06 130.724 22.92 131.004 22.808C131.284 22.696 131.624 22.64 132.024 22.64C132.496 22.64 132.884 22.704 133.188 22.832C133.5 22.96 133.74 23.128 133.908 23.336C134.084 23.536 134.208 23.76 134.28 24.008C134.352 24.256 134.388 24.5 134.388 24.74V28.736C134.388 28.816 134.364 28.88 134.316 28.928C134.268 28.976 134.204 29 134.124 29H133.92C133.84 29 133.776 28.976 133.728 28.928C133.68 28.88 133.656 28.816 133.656 28.736V28.172C133.56 28.316 133.424 28.46 133.248 28.604C133.072 28.748 132.844 28.872 132.564 28.976C132.292 29.072 131.948 29.12 131.532 29.12ZM131.652 28.424C132.02 28.424 132.356 28.344 132.66 28.184C132.964 28.024 133.204 27.78 133.38 27.452C133.564 27.116 133.656 26.696 133.656 26.192V25.784L132.108 26C131.452 26.088 130.956 26.24 130.62 26.456C130.284 26.672 130.116 26.944 130.116 27.272C130.116 27.536 130.192 27.752 130.344 27.92C130.496 28.088 130.688 28.216 130.92 28.304C131.16 28.384 131.404 28.424 131.652 28.424ZM136.55 29C136.47 29 136.406 28.976 136.358 28.928C136.31 28.88 136.286 28.816 136.286 28.736V23.024C136.286 22.944 136.31 22.88 136.358 22.832C136.406 22.784 136.47 22.76 136.55 22.76H136.754C136.834 22.76 136.898 22.784 136.946 22.832C136.994 22.88 137.018 22.944 137.018 23.024V23.588C137.234 23.308 137.494 23.08 137.798 22.904C138.11 22.728 138.522 22.64 139.034 22.64C139.578 22.64 140.03 22.76 140.39 23C140.758 23.232 141.03 23.552 141.206 23.96C141.39 24.36 141.482 24.816 141.482 25.328V28.736C141.482 28.816 141.458 28.88 141.41 28.928C141.362 28.976 141.298 29 141.218 29H141.014C140.934 29 140.87 28.976 140.822 28.928C140.774 28.88 140.75 28.816 140.75 28.736V25.388C140.75 24.748 140.594 24.248 140.282 23.888C139.97 23.52 139.514 23.336 138.914 23.336C138.346 23.336 137.886 23.52 137.534 23.888C137.19 24.248 137.018 24.748 137.018 25.388V28.736C137.018 28.816 136.994 28.88 136.946 28.928C136.898 28.976 136.834 29 136.754 29H136.55ZM145.62 29.12C145.156 29.12 144.76 29.036 144.432 28.868C144.112 28.7 143.852 28.476 143.652 28.196C143.452 27.916 143.304 27.604 143.208 27.26C143.12 26.916 143.068 26.568 143.052 26.216C143.044 26.096 143.04 25.984 143.04 25.88C143.04 25.776 143.044 25.664 143.052 25.544C143.068 25.192 143.12 24.844 143.208 24.5C143.304 24.156 143.452 23.844 143.652 23.564C143.852 23.284 144.112 23.06 144.432 22.892C144.76 22.724 145.156 22.64 145.62 22.64C146.116 22.64 146.524 22.732 146.844 22.916C147.172 23.1 147.436 23.324 147.636 23.588V20.744C147.636 20.664 147.66 20.6 147.708 20.552C147.756 20.504 147.82 20.48 147.9 20.48H148.104C148.184 20.48 148.248 20.504 148.296 20.552C148.344 20.6 148.368 20.664 148.368 20.744V28.736C148.368 28.816 148.344 28.88 148.296 28.928C148.248 28.976 148.184 29 148.104 29H147.9C147.82 29 147.756 28.976 147.708 28.928C147.66 28.88 147.636 28.816 147.636 28.736V28.172C147.436 28.444 147.172 28.672 146.844 28.856C146.524 29.032 146.116 29.12 145.62 29.12ZM145.692 28.424C146.148 28.424 146.516 28.316 146.796 28.1C147.076 27.884 147.284 27.616 147.42 27.296C147.556 26.968 147.628 26.64 147.636 26.312C147.644 26.192 147.648 26.036 147.648 25.844C147.648 25.652 147.644 25.496 147.636 25.376C147.628 25.056 147.552 24.74 147.408 24.428C147.272 24.116 147.064 23.856 146.784 23.648C146.504 23.44 146.14 23.336 145.692 23.336C145.228 23.336 144.856 23.44 144.576 23.648C144.304 23.856 144.108 24.128 143.988 24.464C143.868 24.8 143.8 25.16 143.784 25.544C143.776 25.768 143.776 25.992 143.784 26.216C143.8 26.6 143.868 26.96 143.988 27.296C144.108 27.632 144.304 27.904 144.576 28.112C144.856 28.32 145.228 28.424 145.692 28.424Z" fill="white"/>
<path d="M117.775 28.604C117.719 28.604 117.659 28.588 117.595 28.556C117.539 28.516 117.491 28.484 117.451 28.46L113.911 26.012C113.783 25.924 113.691 25.836 113.635 25.748C113.587 25.66 113.563 25.564 113.563 25.46V25.316C113.563 25.204 113.587 25.108 113.635 25.028C113.691 24.94 113.783 24.852 113.911 24.764L117.451 22.316C117.491 22.292 117.539 22.264 117.595 22.232C117.659 22.192 117.719 22.172 117.775 22.172C117.839 22.172 117.895 22.192 117.943 22.232C117.991 22.272 118.015 22.332 118.015 22.412V22.616C118.015 22.696 117.995 22.764 117.955 22.82C117.923 22.868 117.859 22.924 117.763 22.988L114.295 25.388L117.763 27.788C117.859 27.852 117.923 27.912 117.955 27.968C117.995 28.016 118.015 28.08 118.015 28.16V28.364C118.015 28.444 117.991 28.504 117.943 28.544C117.895 28.584 117.839 28.604 117.775 28.604ZM122.304 29.12C121.856 29.12 121.456 29.064 121.104 28.952C120.752 28.832 120.452 28.676 120.204 28.484C119.964 28.292 119.776 28.076 119.64 27.836C119.512 27.588 119.444 27.332 119.436 27.068C119.436 26.996 119.46 26.94 119.508 26.9C119.556 26.86 119.616 26.84 119.688 26.84H119.856C119.92 26.84 119.98 26.856 120.036 26.888C120.1 26.92 120.148 26.996 120.18 27.116C120.268 27.46 120.424 27.728 120.648 27.92C120.88 28.104 121.14 28.232 121.428 28.304C121.724 28.368 122.016 28.4 122.304 28.4C122.92 28.4 123.424 28.252 123.816 27.956C124.216 27.66 124.416 27.216 124.416 26.624C124.416 26.032 124.236 25.608 123.876 25.352C123.524 25.096 123.04 24.968 122.424 24.968H121.368C121.288 24.968 121.224 24.944 121.176 24.896C121.128 24.848 121.104 24.784 121.104 24.704V24.524C121.104 24.46 121.112 24.408 121.128 24.368C121.152 24.32 121.18 24.276 121.212 24.236L123.684 21.32H120.06C119.98 21.32 119.916 21.296 119.868 21.248C119.82 21.2 119.796 21.136 119.796 21.056V20.876C119.796 20.788 119.82 20.72 119.868 20.672C119.916 20.624 119.98 20.6 120.06 20.6H124.536C124.624 20.6 124.692 20.624 124.74 20.672C124.788 20.72 124.812 20.788 124.812 20.876V21.056C124.812 21.104 124.8 21.148 124.776 21.188C124.76 21.22 124.74 21.252 124.716 21.284L122.184 24.248H122.424C122.976 24.248 123.456 24.336 123.864 24.512C124.28 24.68 124.6 24.94 124.824 25.292C125.056 25.644 125.172 26.088 125.172 26.624C125.172 27.152 125.048 27.604 124.8 27.98C124.552 28.348 124.212 28.632 123.78 28.832C123.348 29.024 122.856 29.12 122.304 29.12ZM155.399 29.12C154.983 29.12 154.623 29.064 154.319 28.952C154.023 28.84 153.779 28.708 153.587 28.556C153.395 28.396 153.251 28.24 153.155 28.088C153.067 27.936 153.019 27.82 153.011 27.74C153.003 27.652 153.031 27.588 153.095 27.548C153.159 27.5 153.219 27.476 153.275 27.476H153.455C153.503 27.476 153.543 27.484 153.575 27.5C153.615 27.516 153.663 27.56 153.719 27.632C153.823 27.768 153.943 27.9 154.079 28.028C154.215 28.148 154.387 28.244 154.595 28.316C154.811 28.388 155.079 28.424 155.399 28.424C155.879 28.424 156.275 28.332 156.587 28.148C156.899 27.964 157.055 27.692 157.055 27.332C157.055 27.108 156.991 26.928 156.863 26.792C156.743 26.656 156.535 26.536 156.239 26.432C155.943 26.328 155.543 26.22 155.039 26.108C154.535 25.988 154.147 25.844 153.875 25.676C153.611 25.508 153.431 25.316 153.335 25.1C153.239 24.876 153.191 24.636 153.191 24.38C153.191 24.1 153.271 23.828 153.431 23.564C153.591 23.292 153.827 23.072 154.139 22.904C154.459 22.728 154.859 22.64 155.339 22.64C155.731 22.64 156.063 22.692 156.335 22.796C156.615 22.9 156.843 23.028 157.019 23.18C157.195 23.324 157.323 23.468 157.403 23.612C157.491 23.756 157.539 23.872 157.547 23.96C157.555 24.04 157.531 24.104 157.475 24.152C157.419 24.2 157.355 24.224 157.283 24.224H157.103C157.039 24.224 156.987 24.212 156.947 24.188C156.907 24.156 156.871 24.116 156.839 24.068C156.759 23.94 156.663 23.82 156.551 23.708C156.439 23.596 156.287 23.508 156.095 23.444C155.911 23.372 155.659 23.336 155.339 23.336C154.859 23.336 154.503 23.436 154.271 23.636C154.039 23.828 153.923 24.076 153.923 24.38C153.923 24.556 153.971 24.712 154.067 24.848C154.163 24.976 154.343 25.096 154.607 25.208C154.871 25.312 155.255 25.424 155.759 25.544C156.271 25.656 156.675 25.796 156.971 25.964C157.267 26.124 157.475 26.316 157.595 26.54C157.723 26.764 157.787 27.028 157.787 27.332C157.787 27.652 157.695 27.948 157.511 28.22C157.335 28.492 157.067 28.712 156.707 28.88C156.355 29.04 155.919 29.12 155.399 29.12ZM161.274 29C161.146 29 161.046 28.972 160.974 28.916C160.91 28.86 160.858 28.788 160.818 28.7L158.61 23.132C158.594 23.084 158.586 23.04 158.586 23C158.586 22.936 158.61 22.88 158.658 22.832C158.706 22.784 158.762 22.76 158.826 22.76H159.078C159.158 22.76 159.218 22.784 159.258 22.832C159.306 22.872 159.334 22.908 159.342 22.94L161.37 28.124L163.398 22.94C163.414 22.908 163.442 22.872 163.482 22.832C163.522 22.784 163.582 22.76 163.662 22.76H163.914C163.978 22.76 164.034 22.784 164.082 22.832C164.13 22.88 164.154 22.936 164.154 23C164.154 23.04 164.146 23.084 164.13 23.132L161.922 28.7C161.89 28.788 161.838 28.86 161.766 28.916C161.694 28.972 161.594 29 161.466 29H161.274ZM167.664 29.12C166.888 29.12 166.272 28.868 165.816 28.364C165.36 27.852 165.1 27.184 165.036 26.36C165.028 26.24 165.024 26.08 165.024 25.88C165.024 25.68 165.028 25.52 165.036 25.4C165.076 24.856 165.204 24.376 165.42 23.96C165.636 23.544 165.932 23.22 166.308 22.988C166.692 22.756 167.144 22.64 167.664 22.64C168.224 22.64 168.7 22.764 169.092 23.012C169.484 23.26 169.784 23.616 169.992 24.08C170.208 24.544 170.316 25.096 170.316 25.736V25.916C170.316 25.996 170.288 26.06 170.232 26.108C170.184 26.156 170.12 26.18 170.04 26.18H165.768C165.768 26.18 165.768 26.196 165.768 26.228C165.768 26.26 165.768 26.284 165.768 26.3C165.784 26.66 165.868 27.004 166.02 27.332C166.172 27.652 166.388 27.916 166.668 28.124C166.948 28.324 167.28 28.424 167.664 28.424C168.008 28.424 168.292 28.372 168.516 28.268C168.748 28.164 168.932 28.052 169.068 27.932C169.204 27.804 169.292 27.708 169.332 27.644C169.404 27.54 169.46 27.48 169.5 27.464C169.54 27.44 169.604 27.428 169.692 27.428H169.884C169.956 27.428 170.016 27.452 170.064 27.5C170.12 27.54 170.144 27.596 170.136 27.668C170.128 27.78 170.064 27.92 169.944 28.088C169.832 28.248 169.668 28.408 169.452 28.568C169.244 28.728 168.988 28.86 168.684 28.964C168.38 29.068 168.04 29.12 167.664 29.12ZM165.768 25.508H169.584V25.46C169.584 25.06 169.508 24.7 169.356 24.38C169.204 24.06 168.984 23.808 168.696 23.624C168.408 23.432 168.064 23.336 167.664 23.336C167.264 23.336 166.92 23.432 166.632 23.624C166.352 23.808 166.136 24.06 165.984 24.38C165.84 24.7 165.768 25.06 165.768 25.46V25.508ZM172.175 29C172.095 29 172.031 28.976 171.983 28.928C171.935 28.88 171.911 28.816 171.911 28.736V20.744C171.911 20.664 171.935 20.6 171.983 20.552C172.031 20.504 172.095 20.48 172.175 20.48H172.379C172.459 20.48 172.523 20.504 172.571 20.552C172.619 20.6 172.643 20.664 172.643 20.744V28.736C172.643 28.816 172.619 28.88 172.571 28.928C172.523 28.976 172.459 29 172.379 29H172.175ZM176.694 29C176.278 29 175.95 28.912 175.71 28.736C175.47 28.56 175.302 28.32 175.206 28.016C175.11 27.712 175.062 27.372 175.062 26.996V23.456H174.126C174.046 23.456 173.982 23.432 173.934 23.384C173.886 23.336 173.862 23.272 173.862 23.192V23.024C173.862 22.944 173.886 22.88 173.934 22.832C173.982 22.784 174.046 22.76 174.126 22.76H175.062V20.744C175.062 20.664 175.086 20.6 175.134 20.552C175.182 20.504 175.246 20.48 175.326 20.48H175.53C175.61 20.48 175.674 20.504 175.722 20.552C175.77 20.6 175.794 20.664 175.794 20.744V22.76H177.282C177.362 22.76 177.426 22.784 177.474 22.832C177.522 22.88 177.546 22.944 177.546 23.024V23.192C177.546 23.272 177.522 23.336 177.474 23.384C177.426 23.432 177.362 23.456 177.282 23.456H175.794V26.948C175.794 27.372 175.862 27.704 175.998 27.944C176.142 28.184 176.394 28.304 176.754 28.304H177.402C177.482 28.304 177.546 28.328 177.594 28.376C177.642 28.424 177.666 28.488 177.666 28.568V28.736C177.666 28.816 177.642 28.88 177.594 28.928C177.546 28.976 177.482 29 177.402 29H176.694ZM181.223 29.12C180.447 29.12 179.831 28.868 179.375 28.364C178.919 27.852 178.659 27.184 178.595 26.36C178.587 26.24 178.583 26.08 178.583 25.88C178.583 25.68 178.587 25.52 178.595 25.4C178.635 24.856 178.763 24.376 178.979 23.96C179.195 23.544 179.491 23.22 179.867 22.988C180.251 22.756 180.703 22.64 181.223 22.64C181.783 22.64 182.259 22.764 182.651 23.012C183.043 23.26 183.343 23.616 183.551 24.08C183.767 24.544 183.875 25.096 183.875 25.736V25.916C183.875 25.996 183.847 26.06 183.791 26.108C183.743 26.156 183.679 26.18 183.599 26.18H179.327C179.327 26.18 179.327 26.196 179.327 26.228C179.327 26.26 179.327 26.284 179.327 26.3C179.343 26.66 179.427 27.004 179.579 27.332C179.731 27.652 179.947 27.916 180.227 28.124C180.507 28.324 180.839 28.424 181.223 28.424C181.567 28.424 181.851 28.372 182.075 28.268C182.307 28.164 182.491 28.052 182.627 27.932C182.763 27.804 182.851 27.708 182.891 27.644C182.963 27.54 183.019 27.48 183.059 27.464C183.099 27.44 183.163 27.428 183.251 27.428H183.443C183.515 27.428 183.575 27.452 183.623 27.5C183.679 27.54 183.703 27.596 183.695 27.668C183.687 27.78 183.623 27.92 183.503 28.088C183.391 28.248 183.227 28.408 183.011 28.568C182.803 28.728 182.547 28.86 182.243 28.964C181.939 29.068 181.599 29.12 181.223 29.12ZM179.327 25.508H183.143V25.46C183.143 25.06 183.067 24.7 182.915 24.38C182.763 24.06 182.543 23.808 182.255 23.624C181.967 23.432 181.623 23.336 181.223 23.336C180.823 23.336 180.479 23.432 180.191 23.624C179.911 23.808 179.695 24.06 179.543 24.38C179.399 24.7 179.327 25.06 179.327 25.46V25.508ZM185.734 29C185.654 29 185.59 28.976 185.542 28.928C185.494 28.88 185.47 28.816 185.47 28.736V20.744C185.47 20.664 185.494 20.6 185.542 20.552C185.59 20.504 185.654 20.48 185.734 20.48H185.938C186.018 20.48 186.082 20.504 186.13 20.552C186.178 20.6 186.202 20.664 186.202 20.744V24.992L188.878 22.964C188.99 22.876 189.07 22.82 189.118 22.796C189.174 22.772 189.262 22.76 189.382 22.76H189.61C189.682 22.76 189.738 22.784 189.778 22.832C189.826 22.872 189.85 22.928 189.85 23C189.85 23.032 189.838 23.072 189.814 23.12C189.798 23.16 189.758 23.2 189.694 23.24L186.658 25.544L189.994 28.52C190.098 28.616 190.15 28.696 190.15 28.76C190.15 28.832 190.126 28.892 190.078 28.94C190.038 28.98 189.982 29 189.91 29H189.718C189.598 29 189.51 28.992 189.454 28.976C189.406 28.952 189.326 28.892 189.214 28.796L186.202 26.12V28.736C186.202 28.816 186.178 28.88 186.13 28.928C186.082 28.976 186.018 29 185.938 29H185.734ZM191.569 29C191.489 29 191.425 28.976 191.377 28.928C191.329 28.88 191.305 28.816 191.305 28.736V23.024C191.305 22.944 191.329 22.88 191.377 22.832C191.425 22.784 191.489 22.76 191.569 22.76H191.773C191.853 22.76 191.917 22.784 191.965 22.832C192.013 22.88 192.037 22.944 192.037 23.024V28.736C192.037 28.816 192.013 28.88 191.965 28.928C191.917 28.976 191.853 29 191.773 29H191.569ZM191.437 21.476C191.357 21.476 191.293 21.452 191.245 21.404C191.197 21.356 191.173 21.292 191.173 21.212V20.756C191.173 20.676 191.197 20.612 191.245 20.564C191.293 20.508 191.357 20.48 191.437 20.48H191.893C191.973 20.48 192.037 20.508 192.085 20.564C192.141 20.612 192.169 20.676 192.169 20.756V21.212C192.169 21.292 192.141 21.356 192.085 21.404C192.037 21.452 191.973 21.476 191.893 21.476H191.437ZM196.077 29C195.661 29 195.333 28.912 195.093 28.736C194.853 28.56 194.685 28.32 194.589 28.016C194.493 27.712 194.445 27.372 194.445 26.996V23.456H193.509C193.429 23.456 193.365 23.432 193.317 23.384C193.269 23.336 193.245 23.272 193.245 23.192V23.024C193.245 22.944 193.269 22.88 193.317 22.832C193.365 22.784 193.429 22.76 193.509 22.76H194.445V20.744C194.445 20.664 194.469 20.6 194.517 20.552C194.565 20.504 194.629 20.48 194.709 20.48H194.913C194.993 20.48 195.057 20.504 195.105 20.552C195.153 20.6 195.177 20.664 195.177 20.744V22.76H196.665C196.745 22.76 196.809 22.784 196.857 22.832C196.905 22.88 196.929 22.944 196.929 23.024V23.192C196.929 23.272 196.905 23.336 196.857 23.384C196.809 23.432 196.745 23.456 196.665 23.456H195.177V26.948C195.177 27.372 195.245 27.704 195.381 27.944C195.525 28.184 195.777 28.304 196.137 28.304H196.785C196.865 28.304 196.929 28.328 196.977 28.376C197.025 28.424 197.049 28.488 197.049 28.568V28.736C197.049 28.816 197.025 28.88 196.977 28.928C196.929 28.976 196.865 29 196.785 29H196.077Z" fill="#D92626"/>
</svg>
