<svg width="565" height="138" viewBox="0 0 565 138" fill="none" xmlns="http://www.w3.org/2000/svg">
<path d="M58.2321 3.19997C75.2135 3.19997 87.0321 6.2293 93.6881 12.288C100.344 18.2613 103.672 26.7093 103.672 37.632C103.672 45.1413 102.349 51.5413 99.7041 56.832C97.0588 62.0373 92.4081 66.1333 85.7521 69.12C79.0961 72.0213 69.9228 73.472 58.2321 73.472H31.6081V96H0.120117C0.802784 79.4453 1.14412 63.9573 1.14412 49.536C1.14412 35.1146 0.802784 19.6266 0.120117 3.07197H31.6081V3.19997H58.2321ZM49.2721 48.768C56.3548 48.768 61.6455 48.512 65.1441 48C68.7281 47.4026 71.2028 46.3786 72.5681 44.928C74.0188 43.4773 74.7441 41.344 74.7441 38.528C74.7441 35.712 74.0615 33.6213 72.6961 32.256C71.4161 30.8053 68.9841 29.824 65.4001 29.312C61.9014 28.8 56.5255 28.544 49.2721 28.544H31.6081V48.768H49.2721Z" fill="white"/>
<path d="M216.654 34.048C216.654 41.472 214.819 47.744 211.15 52.864C207.566 57.984 201.379 61.696 192.59 64C193.614 65.3653 194.339 66.432 194.766 67.2L215.502 96H180.686C176.931 89.0026 171.001 79.104 162.894 66.304H144.078V96H113.87C114.553 79.4453 114.894 63.9573 114.894 49.536C114.894 35.1146 114.553 19.6266 113.87 3.07197H144.078V3.19997H170.318C187.555 3.19997 199.587 5.9733 206.414 11.52C213.241 17.0666 216.654 24.576 216.654 34.048ZM144.078 27.776V42.368H161.358C168.611 42.368 174.073 42.1546 177.742 41.728C181.497 41.216 184.099 40.448 185.55 39.424C187.001 38.4 187.726 36.9066 187.726 34.944C187.726 33.0666 187.043 31.616 185.678 30.592C184.313 29.568 181.753 28.8426 177.998 28.416C174.243 27.9893 168.697 27.776 161.358 27.776H144.078Z" fill="white"/>
<path d="M257.078 72.576C289.505 72.4053 313.014 71.936 327.606 71.168C327.009 74.6666 326.625 78.2933 326.454 82.048C326.369 85.7173 326.326 90.368 326.326 96H226.87C227.553 79.4453 227.894 63.9573 227.894 49.536C227.894 35.1146 227.553 19.6266 226.87 3.07197H326.326V26.24H257.078V38.528C261.174 38.6133 267.233 38.656 275.254 38.656C288.822 38.656 302.859 38.4 317.366 37.888V59.904C302.859 59.392 288.822 59.136 275.254 59.136C267.233 59.136 261.174 59.1786 257.078 59.264V72.576Z" fill="white"/>
<path d="M337.87 84.992C340.771 80.64 343.161 76.5866 345.038 72.832C347.001 69.0773 348.878 64.7253 350.67 59.776C356.729 63.2746 363.769 66.0053 371.79 67.968C379.811 69.9306 387.278 70.912 394.19 70.912C401.273 70.912 406.265 70.3146 409.166 69.12C412.067 67.84 413.518 66.4746 413.518 65.024C413.518 59.8186 405.582 57.216 389.71 57.216C372.302 57.216 359.673 55.424 351.822 51.84C343.971 48.1706 340.046 42.2826 340.046 34.176C340.046 22.656 344.825 14.1653 354.382 8.70396C363.939 3.24263 376.355 0.511963 391.63 0.511963C400.505 0.511963 409.593 1.66396 418.894 3.96796C428.281 6.18663 436.729 9.25863 444.238 13.184C441.763 18.816 439.161 25.6853 436.43 33.792C435.918 35.4986 435.491 36.7786 435.15 37.632C430.798 34.1333 424.227 31.232 415.438 28.928C406.649 26.5386 398.883 25.344 392.142 25.344C384.035 25.344 378.574 25.8986 375.758 27.008C372.942 28.032 371.534 29.568 371.534 31.616C371.534 33.664 373.454 35.328 377.294 36.608C381.219 37.8026 386.851 38.4 394.19 38.4C412.281 38.4 425.422 40.4906 433.614 44.672C441.806 48.768 445.902 55.0826 445.902 63.616C445.902 75.5626 441.55 84.1813 432.846 89.472C424.142 94.6773 410.958 97.28 393.294 97.28C383.822 97.28 374.179 96.256 364.366 94.208C354.553 92.0746 345.721 89.0026 337.87 84.992Z" fill="white"/>
<path d="M456.12 84.992C459.021 80.64 461.411 76.5866 463.288 72.832C465.251 69.0773 467.128 64.7253 468.92 59.776C474.979 63.2746 482.019 66.0053 490.04 67.968C498.061 69.9306 505.528 70.912 512.44 70.912C519.523 70.912 524.515 70.3146 527.416 69.12C530.317 67.84 531.768 66.4746 531.768 65.024C531.768 59.8186 523.832 57.216 507.96 57.216C490.552 57.216 477.923 55.424 470.072 51.84C462.221 48.1706 458.296 42.2826 458.296 34.176C458.296 22.656 463.075 14.1653 472.632 8.70396C482.189 3.24263 494.605 0.511963 509.88 0.511963C518.755 0.511963 527.843 1.66396 537.144 3.96796C546.531 6.18663 554.979 9.25863 562.488 13.184C560.013 18.816 557.411 25.6853 554.68 33.792C554.168 35.4986 553.741 36.7786 553.4 37.632C549.048 34.1333 542.477 31.232 533.688 28.928C524.899 26.5386 517.133 25.344 510.392 25.344C502.285 25.344 496.824 25.8986 494.008 27.008C491.192 28.032 489.784 29.568 489.784 31.616C489.784 33.664 491.704 35.328 495.544 36.608C499.469 37.8026 505.101 38.4 512.44 38.4C530.531 38.4 543.672 40.4906 551.864 44.672C560.056 48.768 564.152 55.0826 564.152 63.616C564.152 75.5626 559.8 84.1813 551.096 89.472C542.392 94.6773 529.208 97.28 511.544 97.28C502.072 97.28 492.429 96.256 482.616 94.208C472.803 92.0746 463.971 89.0026 456.12 84.992Z" fill="white"/>
<path d="M260.645 119.934C257.029 119.819 253.517 119.751 250.108 119.728V137.657H241.472V119.728C238.041 119.751 4.06969 119.819 0.5 119.934V112.721L260.645 112.721V119.934Z" fill="url(#paint0_linear_960_367)"/>
<path d="M276.739 138C271.465 138 267.584 136.867 265.097 134.6C262.61 132.31 261.366 129.104 261.366 124.983C261.366 120.907 262.598 117.724 265.062 115.435C267.55 113.145 271.442 112 276.739 112C282.059 112 390.001 113.145 392.465 115.435C394.953 117.724 396.196 120.907 396.196 124.983C396.196 129.127 394.964 132.333 392.5 134.6C390.036 136.867 282.082 138 276.739 138ZM276.739 130.993C279.295 130.993 385.188 130.513 386.316 129.551C387.445 128.566 388.009 127.044 388.009 124.983C388.009 122.968 387.445 121.468 386.316 120.483C385.188 119.499 279.295 119.007 276.739 119.007C274.205 119.007 272.375 119.499 271.246 120.483C270.118 121.468 269.553 122.968 269.553 124.983C269.553 127.021 270.118 128.532 271.246 129.517C272.375 130.501 274.205 130.993 276.739 130.993Z" fill="url(#paint1_linear_960_367)"/>
<path d="M452.429 130.719C459.108 130.673 529.098 130.558 533.473 130.375C533.174 131.543 532.99 132.665 532.921 133.741C532.852 134.817 532.817 136.122 532.817 137.657H444C444.184 133.214 444.276 129.059 444.276 125.189C444.276 121.319 444.184 117.163 444 112.721H452.429V130.719Z" fill="url(#paint2_linear_960_367)"/>
<path d="M534.844 134.703C535.627 133.535 536.272 132.447 536.778 131.44C537.308 130.432 537.815 129.265 538.298 127.937C539.933 128.875 541.834 129.608 543.998 130.135C546.163 130.661 548.178 130.925 550.044 130.925C551.955 130.925 553.303 130.764 554.086 130.444C554.869 130.1 555.26 129.734 555.26 129.345C555.26 127.948 553.118 127.25 548.835 127.25C544.137 127.25 540.728 126.769 538.609 125.807C536.49 124.823 535.431 123.243 535.431 121.067C535.431 117.976 536.721 115.698 539.3 114.232C541.88 112.767 545.23 112.034 549.353 112.034C551.748 112.034 554.201 112.343 556.711 112.962C559.244 113.557 561.524 114.381 563.551 115.435C562.883 116.946 562.181 118.789 561.444 120.964C561.306 121.422 561.19 121.766 561.098 121.995C559.924 121.056 558.15 120.277 555.778 119.659C553.406 119.018 551.31 118.697 549.491 118.697C547.303 118.697 545.829 118.846 545.069 119.144C544.309 119.419 543.929 119.831 543.929 120.38C543.929 120.93 544.447 121.376 545.484 121.72C546.543 122.041 548.063 122.201 550.044 122.201C554.926 122.201 558.473 122.762 560.684 123.884C562.895 124.983 564 126.677 564 128.967C564 132.173 562.826 134.485 560.477 135.905C558.127 137.302 554.569 138 549.802 138C547.246 138 544.643 137.725 541.995 137.176C539.346 136.603 536.963 135.779 534.844 134.703Z" fill="url(#paint3_linear_960_367)"/>
<path d="M409.18 113.443C408.911 113.161 408.587 112.941 408.236 112.786C407.881 112.635 407.505 112.557 407.122 112.557C406.739 112.557 406.36 112.635 406.009 112.786C405.654 112.937 405.334 113.161 405.065 113.443L403.407 115.165C403.142 115.431 403 115.79 403 116.165C403 116.541 403.142 116.9 403.399 117.166L410.084 124.105C410.198 124.223 410.293 124.366 410.352 124.525C410.416 124.68 410.447 124.852 410.447 125.019C410.447 125.191 410.416 125.358 410.352 125.513C410.289 125.668 410.198 125.811 410.084 125.934L404.516 131.718C403.971 132.285 403.663 133.053 403.663 133.857C403.663 134.657 403.971 135.428 404.516 135.996L405.069 136.571C405.614 137.139 406.356 137.457 407.13 137.457C407.904 137.457 408.643 137.139 409.191 136.571L414.759 130.787C414.874 130.669 415.012 130.571 415.162 130.505C415.312 130.44 415.474 130.407 415.64 130.407C415.802 130.407 415.963 130.44 416.117 130.505C416.267 130.571 416.406 130.665 416.52 130.787L422.992 137.51C423.371 137.828 423.845 138.004 424.331 138C424.82 137.996 425.29 137.82 425.665 137.498L434.056 128.787C434.1 128.75 434.143 128.713 434.182 128.669L436.508 126.252C436.721 126.032 436.872 125.758 436.947 125.456C437.022 125.154 437.018 124.84 436.935 124.542C436.856 124.26 436.714 124.007 436.512 123.803L434.186 121.39C434.163 121.366 434.135 121.345 434.111 121.321L425.653 112.541C425.357 112.23 424.958 112.051 424.54 112.039C424.267 111.977 423.987 111.99 423.723 112.071C423.458 112.153 423.217 112.3 423.02 112.504L418.739 116.945C418.123 117.582 418.127 118.615 418.743 119.251L421.203 121.794C421.819 122.431 422.822 122.431 423.438 121.79C423.553 121.672 423.691 121.574 423.841 121.509C423.991 121.443 424.153 121.411 424.319 121.411C424.481 121.411 424.643 121.443 424.797 121.509C424.947 121.574 425.085 121.668 425.199 121.79L427.438 124.117C427.671 124.358 427.801 124.689 427.801 125.031C427.801 125.374 427.671 125.701 427.438 125.946L425.211 128.26C425.097 128.379 424.958 128.477 424.808 128.542C424.658 128.607 424.496 128.64 424.331 128.64C424.165 128.64 424.007 128.607 423.853 128.542C423.703 128.477 423.565 128.383 423.45 128.26" fill="url(#paint4_linear_960_367)"/>
<defs>
<linearGradient id="paint0_linear_960_367" x1="0.5" y1="125" x2="564" y2="125" gradientUnits="userSpaceOnUse">
<stop stop-color="#FF00E5"/>
<stop offset="1" stop-color="#0094FF"/>
</linearGradient>
<linearGradient id="paint1_linear_960_367" x1="0.5" y1="125" x2="564" y2="125" gradientUnits="userSpaceOnUse">
<stop stop-color="#FF00E5"/>
<stop offset="1" stop-color="#0094FF"/>
</linearGradient>
<linearGradient id="paint2_linear_960_367" x1="0.5" y1="125" x2="564" y2="125" gradientUnits="userSpaceOnUse">
<stop stop-color="#FF00E5"/>
<stop offset="1" stop-color="#0094FF"/>
</linearGradient>
<linearGradient id="paint3_linear_960_367" x1="0.5" y1="125" x2="564" y2="125" gradientUnits="userSpaceOnUse">
<stop stop-color="#FF00E5"/>
<stop offset="1" stop-color="#0094FF"/>
</linearGradient>
<linearGradient id="paint4_linear_960_367" x1="0.5" y1="125" x2="564" y2="125" gradientUnits="userSpaceOnUse">
<stop stop-color="#FF00E5"/>
<stop offset="1" stop-color="#0094FF"/>
</linearGradient>
</defs>
</svg>
